<?xml version="1.0" standalone="no"?>
<!DOCTYPE svg PUBLIC "-//W3C//DTD SVG 20010904//EN"
 "http://www.w3.org/TR/2001/REC-SVG-20010904/DTD/svg10.dtd">
<svg version="1.0" xmlns="http://www.w3.org/2000/svg"
 width="512.000000pt" height="512.000000pt" viewBox="0 0 512.000000 512.000000"
 preserveAspectRatio="xMidYMid meet">
<metadata>
Created by potrace 1.14, written by Peter Selinger 2001-2017
</metadata>
<g transform="translate(0.000000,512.000000) scale(0.100000,-0.100000)"
fill="#000000" stroke="none">
<path d="M2349 5116 c-2 -2 -38 -7 -79 -10 -42 -4 -89 -9 -105 -12 -439 -75
-836 -247 -1170 -505 -129 -99 -347 -314 -446 -440 -86 -110 -169 -231 -169
-247 0 -7 -4 -12 -9 -12 -8 0 -147 -270 -185 -360 -73 -173 -155 -493 -174
-674 -9 -90 -9 -510 1 -596 28 -262 116 -565 231 -800 19 -38 44 -84 128 -235
6 -11 14 -25 17 -32 11 -22 119 -178 138 -198 10 -11 31 -38 48 -60 56 -76
320 -331 425 -411 124 -96 316 -213 461 -282 190 -91 463 -179 649 -208 19 -3
38 -8 41 -10 31 -19 606 -27 739 -11 243 30 586 134 802 243 114 58 314 180
387 237 252 194 468 419 606 632 22 33 42 62 45 65 26 25 187 347 227 455 81
220 131 431 150 630 15 158 9 516 -11 665 -40 287 -139 577 -297 863 -130 234
-232 368 -432 569 -398 399 -876 639 -1452 728 -67 11 -557 24 -566 16z m261
-575 c19 -5 82 -12 140 -15 164 -9 268 -29 421 -80 145 -47 429 -204 429 -235
0 -11 -28 -7 -65 8 -59 25 -341 19 -400 -8 -11 -5 -60 -22 -110 -37 -49 -15
-101 -35 -115 -44 -30 -19 -165 -77 -200 -85 -14 -3 -46 -7 -71 -9 l-46 -2 7
35 c3 20 7 39 8 44 1 4 2 16 2 27 0 27 83 116 134 143 21 12 53 30 70 40 l31
17 -51 -5 c-28 -2 -71 -12 -95 -20 -81 -28 -239 -98 -239 -106 0 -4 -17 -18
-37 -30 -50 -31 -82 -59 -242 -214 -74 -71 -143 -138 -153 -148 -25 -24 -62
-37 -77 -27 -36 21 -9 189 39 250 57 72 5 46 -81 -41 -75 -75 -157 -186 -178
-241 -35 -92 -127 -280 -153 -312 -57 -72 -106 -114 -153 -131 -65 -24 -72
-30 -100 -85 -27 -53 -46 -64 -145 -80 -189 -32 -447 -96 -471 -117 -42 -36
-53 -202 -19 -268 12 -22 28 -69 36 -105 15 -66 83 -220 97 -220 4 0 7 21 8
48 2 137 11 154 84 154 55 0 84 -18 132 -81 39 -50 60 -118 69 -215 10 -116
-23 -191 -86 -196 -90 -7 -129 21 -156 112 -17 57 -19 59 -25 32 -3 -16 -6
-88 -7 -159 -1 -113 2 -139 22 -197 61 -175 103 -192 361 -153 106 16 219 12
269 -9 53 -22 73 -90 42 -146 -71 -131 -78 -149 -85 -212 -13 -118 -5 -193 25
-248 15 -27 30 -48 33 -45 4 2 6 25 5 50 -4 98 50 248 101 281 14 9 28 14 31
11 3 -3 8 -47 10 -99 6 -115 15 -152 66 -253 40 -81 112 -185 127 -185 5 0 2
26 -5 57 -17 71 -20 221 -5 286 12 52 44 122 61 132 6 4 11 -9 11 -32 2 -41 3
-54 13 -123 18 -114 48 -189 106 -260 l20 -25 -11 33 c-19 56 4 217 31 217 15
0 69 -99 70 -127 0 -9 4 -20 10 -23 5 -3 17 -21 26 -40 22 -46 167 -183 231
-218 57 -30 177 -63 268 -72 33 -3 76 -8 95 -11 31 -5 33 -7 15 -17 -31 -17
-509 -19 -615 -2 -148 24 -269 64 -440 147 -110 53 -266 141 -280 158 -3 4
-33 25 -67 49 -35 23 -84 62 -110 87 -27 25 -75 71 -107 102 -33 32 -85 91
-117 132 -32 41 -72 92 -89 114 -16 21 -30 42 -30 48 0 5 -14 30 -31 55 -17
25 -62 109 -100 187 -145 304 -204 639 -175 1006 12 161 72 420 122 530 28 61
116 235 124 245 4 6 22 37 40 69 30 56 54 91 132 194 48 63 304 309 341 329
18 8 49 31 70 49 20 19 42 34 48 34 6 0 41 20 78 43 36 24 82 50 101 58 19 7
63 28 98 46 35 18 72 33 82 33 10 0 21 4 24 9 3 5 16 11 28 14 13 3 64 17 113
31 50 14 110 29 135 32 25 3 56 7 70 10 14 2 68 6 120 9 105 6 161 13 169 20
7 8 53 6 91 -4z m946 -372 c3 -5 -1 -9 -8 -9 -7 0 -26 -7 -43 -16 -16 -9 -43
-18 -60 -21 -50 -7 -210 -90 -247 -127 -20 -20 -41 -36 -47 -36 -15 0 -103
-108 -140 -173 -52 -91 -107 -257 -85 -257 5 0 101 81 169 143 30 28 124 73
210 102 61 21 95 26 173 25 53 0 106 -2 117 -4 11 -3 24 -5 28 -5 5 -1 6 -5 2
-10 -8 -14 7 -20 67 -27 80 -8 199 -31 233 -45 17 -7 32 -13 35 -14 61 -18 90
-30 90 -37 0 -4 7 -8 15 -8 8 0 45 -30 82 -66 61 -59 66 -67 50 -79 -9 -7 -17
-15 -17 -18 0 -3 25 -32 56 -64 63 -64 154 -180 154 -196 0 -6 6 -18 13 -26
19 -22 64 -150 72 -202 3 -24 11 -62 17 -84 19 -70 15 -419 -6 -535 -2 -14 -8
-43 -11 -65 -12 -68 -70 -217 -111 -285 -47 -76 -166 -236 -224 -299 -22 -25
-40 -48 -40 -52 0 -4 -10 -11 -22 -15 -13 -4 -32 -16 -44 -27 -11 -10 -49 -35
-85 -53 -56 -29 -74 -34 -137 -34 -85 0 -86 1 -86 106 l0 71 64 62 c36 35 117
106 180 159 171 144 227 205 290 317 46 81 68 131 75 168 4 20 11 37 15 37 22
0 35 188 18 264 -17 75 -64 159 -120 214 -67 65 -91 82 -198 136 l-85 43 -146
-2 c-138 -2 -150 -4 -235 -35 -49 -19 -107 -45 -128 -59 -158 -103 -197 -119
-309 -126 -245 -14 -262 -19 -340 -101 -34 -35 -65 -64 -70 -64 -5 0 -28 -13
-51 -28 -23 -16 -59 -31 -79 -35 -53 -8 -108 -37 -117 -61 -4 -12 -11 -39 -14
-61 -6 -33 -3 -44 14 -62 11 -12 20 -33 20 -47 0 -29 75 -93 163 -137 59 -30
80 -27 28 4 -32 19 -67 69 -73 103 -6 42 21 68 130 122 123 61 146 67 262 67
73 0 93 -4 141 -28 45 -22 64 -40 93 -85 l36 -57 -5 -100 c-5 -125 -13 -181
-31 -222 -8 -18 -21 -50 -29 -70 l-16 -38 33 36 c55 59 72 82 99 134 31 57 40
94 54 221 8 79 32 159 59 198 33 50 140 159 186 191 86 59 228 85 321 58 65
-18 141 -63 147 -85 2 -10 8 -18 13 -18 5 0 16 -14 24 -30 31 -59 16 -219 -27
-304 -29 -56 -109 -138 -197 -201 -42 -30 -87 -63 -101 -74 -14 -12 -54 -40
-90 -63 -82 -54 -289 -258 -325 -322 -45 -78 -77 -175 -69 -210 7 -35 65 -156
95 -197 31 -44 120 -82 195 -84 107 -3 189 21 334 99 75 41 95 35 66 -19 -18
-33 -80 -95 -180 -178 -51 -43 -242 -145 -341 -182 -36 -14 -86 -28 -112 -31
-26 -3 -55 -10 -65 -15 -11 -6 -61 -12 -111 -14 -118 -4 -115 -4 -93 -16 10
-6 65 -14 123 -17 99 -5 104 -6 101 -26 -8 -55 -273 -80 -433 -41 -49 12 -197
77 -239 104 -39 25 -126 140 -126 165 0 6 -4 16 -9 22 -5 5 -21 47 -36 94 -36
113 -42 241 -16 331 32 108 71 211 107 284 19 39 37 86 40 105 5 30 1 40 -33
77 -66 71 -123 70 -188 -4 -56 -62 -126 -133 -161 -163 -107 -91 -127 -345
-32 -425 36 -31 90 -33 117 -6 11 11 22 41 26 72 l7 53 29 -32 c39 -44 40 -98
2 -144 -50 -60 -54 -62 -119 -66 -70 -5 -87 3 -156 66 -73 68 -144 236 -162
385 -3 26 -9 68 -12 95 -7 65 -23 111 -50 152 -13 19 -24 45 -24 58 0 12 -12
35 -27 49 -20 21 -27 39 -30 83 -3 41 -12 67 -37 105 -18 28 -38 67 -45 88 -7
20 -17 38 -22 38 -71 10 -98 54 -96 156 2 76 7 81 187 217 74 55 151 119 172
141 122 129 178 181 241 223 76 49 214 180 238 224 84 158 137 251 165 291 19
26 34 52 34 57 0 6 5 10 10 10 6 0 14 8 17 18 10 27 115 152 179 213 93 88
226 169 278 169 11 0 27 7 36 15 10 9 48 21 85 28 79 15 283 19 291 6z"/>
</g>
</svg>
