<svg width="301" height="56" viewBox="0 0 301 56" fill="none" xmlns="http://www.w3.org/2000/svg">
<path d="M25.9372 0.050724C25.0028 0.0989571 23.935 0.195419 23.571 0.279827C23.2069 0.352177 22.6852 0.472755 22.4182 0.520988C22.1512 0.581276 21.7387 0.665684 21.5081 0.713917C20.4403 0.894787 16.7393 2.22117 15.8657 2.71555C15.7322 2.79996 15.356 2.98083 15.0405 3.13758C14.4823 3.40286 11.9341 4.94629 11.8006 5.10304C11.7642 5.13921 11.5216 5.32008 11.2546 5.52507C10.9876 5.718 10.7086 5.93504 10.6236 6.00739C10.5508 6.06768 10.3081 6.26061 10.0776 6.42942C9.50726 6.85146 6.8377 9.52834 6.40087 10.1071C6.20672 10.3724 5.89122 10.7824 5.69707 11.0115C5.51506 11.2406 5.30878 11.4938 5.2481 11.5782C5.18743 11.6506 4.95688 12.0002 4.73846 12.362C4.52004 12.7117 4.30163 13.0131 4.25309 13.0372C4.20455 13.0613 4.15601 13.1578 4.15601 13.2422C4.15601 13.3266 4.11961 13.4231 4.07107 13.4472C3.96186 13.4834 3.75558 13.8572 2.91831 15.4729C2.60282 16.1 2.33586 16.6546 2.33586 16.7149C2.33586 16.7632 2.20238 17.0767 2.04464 17.4022C1.87476 17.7399 1.63207 18.403 1.48646 18.8854C1.34084 19.3677 1.12243 20.055 1.00108 20.4167C0.87974 20.7785 0.709859 21.4055 0.637053 21.8034C0.552113 22.2013 0.442904 22.7681 0.382232 23.0695C-0.127411 25.6982 -0.127411 30.3284 0.382232 32.9571C0.442904 33.2585 0.552113 33.8253 0.637053 34.2232C0.709859 34.6211 0.87974 35.2481 1.00108 35.6099C1.12243 35.9716 1.34084 36.6589 1.48646 37.1412C1.63207 37.6236 1.87476 38.2867 2.04464 38.6244C2.20238 38.9499 2.33586 39.2634 2.33586 39.3117C2.33586 39.372 2.60282 39.9266 2.91831 40.5537C3.75558 42.1694 3.96186 42.5432 4.07107 42.5794C4.11961 42.6035 4.15601 42.7 4.15601 42.7844C4.15601 42.8688 4.20455 42.9653 4.25309 42.9894C4.30163 43.0014 4.52004 43.3149 4.73846 43.6646C4.95688 44.0264 5.18743 44.3761 5.2481 44.4484C5.30878 44.5328 5.51506 44.786 5.69707 45.0151C5.89122 45.2442 6.20672 45.6542 6.40087 45.9195C6.8377 46.4983 9.50726 49.1752 10.0776 49.5972C10.3081 49.766 10.5508 49.9589 10.6236 50.0192C10.7086 50.0916 10.9876 50.3086 11.2546 50.5015C11.5216 50.7065 11.7642 50.8874 11.8006 50.9236C11.9341 51.0803 14.4823 52.6238 15.0405 52.889C15.356 53.0458 15.7322 53.2267 15.8657 53.3111C16.8364 53.8657 20.4039 55.1198 21.8115 55.385C22.2119 55.4694 22.7822 55.578 23.0856 55.6383C24.4325 55.9156 25.6217 56 28 56C30.3783 56 31.5675 55.9156 32.9144 55.6383C33.2178 55.578 33.7881 55.4694 34.1885 55.385C35.5961 55.1198 39.1636 53.8657 40.1343 53.3111C40.2678 53.2267 40.644 53.0458 40.9595 52.889C41.5177 52.6238 44.0659 51.0803 44.1993 50.9236C44.2358 50.8874 44.4784 50.7065 44.7454 50.5015C45.0124 50.3086 45.2914 50.0916 45.3764 50.0192C45.4492 49.9589 45.6919 49.766 45.9224 49.5972C46.4927 49.1752 49.1623 46.4983 49.5991 45.9195C49.7933 45.6542 50.1088 45.2442 50.3029 45.0151C50.4849 44.786 50.6912 44.5328 50.7519 44.4484C50.8126 44.3761 51.0431 44.0264 51.2615 43.6646C51.48 43.3149 51.6984 43.0014 51.7469 42.9894C51.7954 42.9653 51.844 42.8688 51.844 42.7844C51.844 42.7 51.8804 42.6035 51.9411 42.5794C52.0381 42.5432 52.2444 42.1694 53.0817 40.5537C53.3972 39.9266 53.6641 39.372 53.6641 39.3117C53.6641 39.2634 53.7976 38.9499 53.9554 38.6244C54.1252 38.2867 54.3679 37.6236 54.5135 37.1412C54.6592 36.6589 54.8776 35.9716 54.9989 35.6099C55.1203 35.2481 55.2901 34.6211 55.3629 34.2232C55.4479 33.8253 55.5571 33.2585 55.6178 32.9571C56.1274 30.3284 56.1274 25.6982 55.6178 23.0695C55.5571 22.7681 55.4479 22.2013 55.3629 21.8034C55.2901 21.4055 55.1203 20.7785 54.9989 20.4167C54.8776 20.055 54.6592 19.3677 54.5135 18.8854C54.3679 18.403 54.1252 17.7399 53.9554 17.4022C53.7976 17.0767 53.6641 16.7632 53.6641 16.7149C53.6641 16.6546 53.3972 16.1 53.0817 15.4729C52.2444 13.8572 52.0381 13.4834 51.9411 13.4472C51.8804 13.4231 51.844 13.3266 51.844 13.2422C51.844 13.1578 51.7954 13.0613 51.7469 13.0372C51.6984 13.0131 51.48 12.7117 51.2615 12.362C51.0431 12.0002 50.8126 11.6506 50.7519 11.5782C50.6912 11.4938 50.4849 11.2406 50.3029 11.0115C50.1088 10.7824 49.7933 10.3724 49.5991 10.1071C49.1623 9.52834 46.4927 6.85146 45.9224 6.42942C45.6919 6.26061 45.4492 6.06768 45.3764 6.00739C45.2914 5.93504 45.0124 5.718 44.7454 5.52507C44.4784 5.32008 44.2358 5.13921 44.1993 5.10304C44.0659 4.94629 41.5177 3.40286 40.9595 3.13758C40.644 2.98083 40.2678 2.79996 40.1343 2.71555C39.1636 2.16088 35.5961 0.906845 34.1885 0.641567C33.7881 0.557163 33.2178 0.448639 32.9144 0.388348C31.2399 0.050724 28.4854 -0.081913 25.9372 0.050724ZM28.3034 6.29679C28.3034 6.35707 28.9707 6.42942 29.7959 6.4656C31.434 6.53794 32.7809 6.75499 34.0672 7.1529C35.2806 7.53876 36.2271 7.88845 36.4334 8.05726C36.5304 8.12961 36.9187 8.33459 37.2828 8.50341C37.6589 8.67222 38.0351 8.90132 38.12 9.00984C38.205 9.11837 38.3506 9.20277 38.4355 9.20277C38.5326 9.20277 38.6175 9.23895 38.6418 9.28718C38.6661 9.34747 38.836 9.48011 39.0423 9.58863C39.2364 9.69715 39.4184 9.84185 39.4427 9.9142C39.4912 10.0709 38.8966 10.0951 38.836 9.93831C38.751 9.69715 37.028 9.57657 35.6204 9.70921C34.868 9.78156 34.2492 9.89008 34.2492 9.93831C34.2492 9.98655 33.8852 10.1192 33.4362 10.2277C32.9751 10.3483 32.5625 10.493 32.5018 10.5533C32.429 10.6015 32.2834 10.6497 32.1621 10.6497C32.0407 10.6497 31.9437 10.698 31.9437 10.7462C31.9437 10.8065 31.7131 10.9391 31.434 11.0597C31.1428 11.1803 30.621 11.4094 30.2691 11.5661C29.8566 11.747 29.4076 11.8555 29.0072 11.8555H28.3883L28.4611 11.1803C28.4975 10.7703 28.6189 10.4086 28.7523 10.2639C29.359 9.61274 29.808 9.20277 29.9051 9.20277C29.9658 9.20277 30.1963 9.07013 30.4147 8.90132C30.6332 8.73251 30.9486 8.59987 31.1064 8.58781C31.2641 8.58781 31.3248 8.55164 31.2399 8.51546C30.9972 8.419 29.6624 8.69633 29.0921 8.96161C27.6966 9.58863 27.1991 9.80567 27.0899 9.80567C27.0171 9.80567 26.9686 9.8539 26.9686 9.92625C26.9686 9.98655 26.8108 10.1192 26.6288 10.2156C26.2769 10.3965 25.6823 10.8788 24.9664 11.5541C24.748 11.747 24.4446 12.0244 24.2869 12.169C24.1291 12.3137 23.5467 12.8925 23.0007 13.4713C21.86 14.653 21.3382 14.9062 21.1926 14.3395C21.0956 13.9416 21.229 12.8081 21.4475 12.3017C21.5324 12.0846 21.7265 11.8073 21.86 11.6867C22.1998 11.3853 22.1876 11.2044 21.8479 11.3973C21.314 11.7108 20.0641 13.0372 19.5181 13.8692C19.2147 14.3395 18.9599 14.7615 18.9599 14.7977C18.9599 14.8459 18.8507 15.0992 18.7294 15.3885C18.5959 15.6659 18.3168 16.317 18.1105 16.8234C17.9042 17.3299 17.613 17.8725 17.4674 18.0293C17.3218 18.186 17.1034 18.4633 16.982 18.6563C16.6301 19.1868 16.3753 19.4521 16.2054 19.4521C16.1205 19.4521 16.0477 19.5003 16.0477 19.5486C16.0477 19.6089 15.7686 19.7294 15.4288 19.8138C14.8585 19.9706 14.7978 20.0309 14.4945 20.6458C14.1304 21.4055 14.2761 21.3332 12.104 21.6828C11.4366 21.7914 10.5387 21.9843 10.1018 22.1049C9.66501 22.2254 8.94908 22.4184 8.51224 22.5269C7.73564 22.7198 7.68711 22.7439 7.50509 23.2383C7.39588 23.5157 7.31094 24.0944 7.31094 24.5526C7.31094 25.3002 7.39588 25.6138 7.74778 26.084C7.82058 26.1805 7.91766 26.5663 7.9662 26.9281C8.0026 27.3139 8.18462 27.8686 8.40303 28.2545C8.59718 28.6162 8.82774 29.0503 8.91268 29.2191C9.05829 29.4844 9.07042 29.4 9.10683 28.3992C9.14323 27.3019 9.14323 27.2778 9.47086 27.1572C9.65287 27.0848 10.029 27.0607 10.3081 27.109C10.7207 27.1692 10.9027 27.2898 11.2789 27.7239C11.8613 28.4353 12.0069 28.785 12.1768 29.9788C12.3467 31.1363 12.2618 31.7392 11.8613 32.1974C11.6186 32.4868 11.4852 32.5351 10.9634 32.523C10.1625 32.511 9.81062 32.1974 9.53153 31.2207L9.31311 30.4852L9.22817 31.7513C9.11896 33.1983 9.2039 34.2473 9.45872 34.8743C9.83489 35.7907 9.91983 35.9716 10.0048 35.9716C10.0654 35.9716 10.1018 36.044 10.1018 36.1404C10.1018 36.2248 10.3081 36.4057 10.5508 36.5142C10.9148 36.6951 11.1818 36.7192 12.0919 36.6469C12.6986 36.5986 13.4145 36.5142 13.6815 36.4539C14.4338 36.2731 15.6836 36.3092 16.254 36.5263C16.6908 36.6951 16.8 36.8036 16.9092 37.1895C17.0548 37.6718 16.9213 38.2506 16.5694 38.6003C16.4845 38.6847 16.4117 38.8414 16.4117 38.9379C16.4117 39.0343 16.3632 39.1067 16.2904 39.1067C16.2297 39.1067 16.169 39.2032 16.169 39.3237C16.169 39.4443 16.1083 39.6011 16.0234 39.6855C15.9385 39.7699 15.8657 40.3607 15.8293 41.1324C15.7807 42.2297 15.8171 42.5191 15.9991 42.917C16.1205 43.1703 16.254 43.4114 16.2904 43.4476C16.3389 43.4838 16.4238 43.6043 16.4966 43.737C16.5937 43.9058 16.6059 43.8093 16.5573 43.327C16.436 42.0609 17.2611 39.9508 17.88 39.9508C18.0862 39.9508 18.1105 40.0472 18.1105 40.9395C18.1105 41.4942 18.1954 42.1936 18.2804 42.5071C18.5473 43.3752 19.2754 44.7981 19.688 45.2442C19.8821 45.4733 20.1248 45.7748 20.2219 45.9074C20.3554 46.1124 20.3554 46.0159 20.1976 45.3769C19.8093 43.7129 19.9307 42.073 20.5131 40.9516C20.7801 40.4331 20.9014 40.4451 20.9014 40.9998C20.9014 41.5786 21.2048 43.327 21.4111 43.9058C21.496 44.159 21.7023 44.5208 21.8722 44.7257C22.042 44.9307 22.2483 45.196 22.3333 45.3286C22.4667 45.5336 22.4667 45.5336 22.3575 45.2925C22.0784 44.6896 22.2969 42.6035 22.6609 42.6035C22.8065 42.6156 23.4496 43.9179 23.4496 44.2072C23.4496 44.3278 23.4982 44.4122 23.5588 44.4122C23.6195 44.4122 23.7166 44.569 23.7894 44.7499C23.9714 45.2804 25.6217 46.8359 26.4832 47.282C27.0414 47.5714 29.08 48.0296 29.8566 48.0296C30.5603 48.0296 30.8273 48.1623 30.439 48.307C30.3419 48.3431 29.2984 48.4034 28.0971 48.4517C25.9857 48.524 24.117 48.4155 22.9036 48.1623C21.8843 47.9452 19.3967 47.0529 19.1298 46.8118C18.9963 46.6791 18.8264 46.5827 18.7536 46.5827C18.608 46.5827 17.3582 45.9677 17.2611 45.8471C17.2247 45.811 16.8849 45.5939 16.4966 45.3769C16.1205 45.1719 15.805 44.9548 15.805 44.9066C15.805 44.8584 15.5987 44.7137 15.356 44.581C15.1133 44.4605 14.7493 44.2072 14.543 44.0384C13.3781 43.0376 12.6865 42.3985 12.468 42.1212C12.3346 41.9524 12.0191 41.5906 11.7521 41.3013C11.4852 41.0239 11.1333 40.5537 10.9634 40.2763C10.8056 39.999 10.5993 39.7337 10.5265 39.6855C10.4416 39.6372 10.3081 39.4202 10.2111 39.2032C10.1261 38.9861 9.95623 38.7088 9.84702 38.5882C9.51939 38.2385 8.08754 35.2481 7.85699 34.4644C7.74778 34.0664 7.5779 33.4997 7.49296 33.1983C6.74063 30.6299 6.52221 27.326 6.93478 24.3356C7.05612 23.383 7.63857 20.9473 7.80845 20.6338C7.86912 20.5132 7.91766 20.3444 7.91766 20.26C7.91766 20.1032 9.34951 17.149 9.48299 17.0405C9.51939 17.0043 9.72568 16.6667 9.91983 16.2808C10.1261 15.895 10.3688 15.485 10.4659 15.3765C10.5629 15.268 10.8178 14.9303 11.0119 14.6289C11.2182 14.3274 11.5458 13.9175 11.74 13.7125C11.9463 13.5075 12.4316 13.0011 12.8442 12.567C13.2446 12.1449 13.815 11.5903 14.1183 11.3491C14.4095 11.0959 14.7372 10.8185 14.8342 10.7221C14.9313 10.6377 15.1983 10.4689 15.4167 10.3603C15.6351 10.2518 15.8414 10.083 15.8778 9.98655C15.9142 9.90214 16.0962 9.7695 16.2661 9.69715C16.7029 9.52834 17.249 9.20277 17.6737 8.86515C17.8678 8.72045 18.0741 8.59987 18.1348 8.59987C18.3047 8.59987 19.1055 8.22607 19.3239 8.05726C19.421 7.97285 19.6152 7.87639 19.7486 7.84021C19.8821 7.80404 20.3796 7.63523 20.8407 7.46642C22.4789 6.85146 24.0199 6.56206 26.0949 6.4656C26.9079 6.42942 27.5753 6.35707 27.5753 6.29679C27.5753 6.2365 27.7452 6.18826 27.9393 6.18826C28.1456 6.18826 28.3034 6.2365 28.3034 6.29679ZM38.9816 10.3965C38.9816 10.4568 38.7874 10.5412 38.5569 10.5774C38.3263 10.6256 38.1322 10.71 38.1322 10.7703C38.1322 10.8427 37.9866 10.8909 37.8167 10.8909C37.5255 10.8909 37.1978 11.0115 36.312 11.4215C35.6568 11.7229 34.8559 12.2896 34.7952 12.4826C34.7467 12.6031 34.6254 12.6996 34.504 12.6996C34.3827 12.6996 34.1764 12.8443 34.055 13.0131C33.9337 13.194 33.6546 13.5437 33.4362 13.7969C33.0236 14.3033 32.3077 15.7141 32.3077 16.0156C32.3077 16.1241 32.2228 16.3411 32.1135 16.4979C32.0165 16.6546 31.9437 16.932 31.9679 17.1249L32.0043 17.4625L32.6717 16.8355C33.2663 16.2808 33.7153 15.895 34.0672 15.6297C34.5161 15.2921 36.13 14.6168 36.7489 14.4963C37.5497 14.3516 39.5034 14.3877 39.6611 14.5445C39.7218 14.5927 39.6854 14.6892 39.6004 14.7495C39.4912 14.8098 39.7339 14.87 40.2678 14.9183C41.2264 15.0027 42.3307 15.1956 42.6826 15.3403C42.816 15.4006 43.2407 15.5453 43.629 15.6659C44.0052 15.7865 44.3207 15.9312 44.3207 15.9794C44.3207 16.0276 44.3935 16.0759 44.4784 16.0759C44.7211 16.0759 46.0195 17.3419 46.0195 17.571C46.0195 17.6796 45.9224 17.764 45.7768 17.764C45.5827 17.764 45.7283 17.9569 46.3835 18.596C46.8446 19.0542 47.2329 19.4762 47.2329 19.5365C47.2329 19.6089 47.4028 19.8259 47.597 20.0309C47.8032 20.2479 47.961 20.4891 47.961 20.5856C47.961 20.67 48.0459 20.8147 48.143 20.8991C48.2401 20.9835 48.325 21.104 48.325 21.1643C48.325 21.2367 48.3978 21.4537 48.4828 21.6587C48.7861 22.3701 48.9439 22.9489 49.0167 23.6121C49.0531 23.9739 49.138 24.2753 49.1866 24.2753C49.2472 24.2753 49.2958 25.4449 49.2958 26.8678C49.2958 28.2906 49.2472 29.4603 49.1866 29.4603C49.138 29.4603 49.0531 29.822 49.0046 30.2561C48.956 30.6902 48.8711 31.1363 48.8225 31.2449C48.7619 31.3534 48.6162 31.7754 48.4949 32.1733C48.3736 32.5712 48.2158 32.9812 48.143 33.0777C48.0702 33.1741 47.9367 33.4153 47.8397 33.6203C47.7426 33.8132 47.6212 34.0303 47.5727 34.1026C47.4878 34.2111 47.2451 34.5488 46.2379 35.9354C46.0802 36.1525 45.704 36.6107 45.3885 36.9483C45.0609 37.298 44.8061 37.6236 44.8061 37.6718C44.8061 37.7321 44.709 37.7803 44.5876 37.7803C44.4784 37.7803 44.3086 37.8888 44.2236 38.0215C44.1387 38.1541 43.8232 38.3832 43.4956 38.5279C43.1801 38.6726 42.8888 38.8414 42.8524 38.9017C42.7311 39.0705 41.1415 39.1429 40.9231 38.9982C40.7896 38.9017 40.7411 38.6364 40.7411 37.9974V37.1171L41.4813 36.3936C42.2457 35.6581 42.719 35.2481 44.0173 34.187C44.4178 33.8615 44.9153 33.4153 45.1094 33.1983C45.3157 32.9812 45.5584 32.7039 45.6797 32.5954C45.9467 32.2939 46.7476 31.0519 46.7476 30.9193C46.7476 30.859 46.8204 30.7264 46.9174 30.6299C47.0995 30.4611 47.4756 29.4482 47.4756 29.1588C47.4756 29.0624 47.5242 28.9779 47.5848 28.9779C47.7304 28.9779 47.8761 28.0977 47.8761 27.2295C47.8761 26.3975 47.7304 25.4811 47.597 25.4811C47.5484 25.4811 47.4635 25.3364 47.415 25.1556C47.1844 24.2391 45.9346 23.0333 44.4663 22.3219L43.4106 21.8155H41.7725C40.5105 21.8155 40.0373 21.8517 39.7096 22.0084C39.4791 22.1169 39.0665 22.2737 38.8117 22.346C38.2414 22.5269 37.5012 22.9369 37.3677 23.1539C37.3192 23.2383 37.1978 23.3107 37.1008 23.3107C37.0158 23.3107 36.9187 23.3468 36.8945 23.3951C36.8823 23.4554 36.5547 23.6483 36.1664 23.8412C35.5476 24.1547 35.3291 24.1909 33.7395 24.2633C31.8102 24.3597 31.4704 24.4682 30.7788 25.2158C30.5482 25.4691 30.3662 25.6982 30.3662 25.7343C30.3662 25.7826 30.0628 25.9634 29.6988 26.1443C29.3348 26.3131 29.0314 26.5181 29.0314 26.5784C29.0314 26.6387 28.8615 26.6869 28.6674 26.6869C28.4611 26.6869 28.0607 26.7954 27.7816 26.9281C27.3083 27.1572 27.2355 27.2416 27.1142 27.7842C27.005 28.2424 27.005 28.4353 27.1263 28.6162C27.1991 28.7488 27.3083 28.8574 27.3569 28.8574C27.4176 28.8574 27.454 29.0141 27.454 29.207C27.454 29.4482 27.551 29.617 27.7937 29.7617C27.9757 29.8823 28.2306 30.0993 28.364 30.232C28.5946 30.4852 29.8566 31.0881 29.9536 31.0037C29.9779 30.9796 29.808 30.859 29.5896 30.7384C29.1649 30.5093 28.7402 29.9185 28.7038 29.4844C28.6795 29.2191 28.9829 28.7368 29.177 28.7368C29.2256 28.7368 29.5411 28.568 29.8808 28.363C30.8758 27.7601 31.9801 27.4104 32.9508 27.4104C33.6303 27.4104 33.9337 27.4827 34.5647 27.7842C34.9894 27.9771 35.3413 28.2183 35.3413 28.3148C35.3413 28.4112 35.4384 28.58 35.5597 28.7006C36.0208 29.1468 36.1057 29.8823 35.8873 31.4619C35.7781 32.2457 35.6446 32.9209 35.5961 32.9571C35.5476 32.9933 35.4262 33.2585 35.3049 33.56L35.0986 34.1026L35.5961 33.56C35.8631 33.2585 36.215 32.8124 36.3484 32.5471C36.494 32.2939 36.6761 31.9683 36.761 31.8236C36.8459 31.6789 36.9673 31.0519 37.0401 30.4249C37.21 28.8574 37.4041 28.0615 37.6711 27.7842C37.7924 27.6516 37.8895 27.4948 37.8895 27.4345C37.8895 27.3742 38.3142 26.8919 38.8481 26.3734C39.649 25.5776 39.9402 25.3605 40.6683 25.0832C41.9666 24.5888 43.2043 24.6491 44.1993 25.252C44.2964 25.3123 44.5027 25.4088 44.6605 25.4811C44.8061 25.5414 44.9274 25.674 44.9274 25.7826C44.9274 25.879 44.9638 25.9634 45.0245 25.9634C45.073 25.9634 45.2065 26.1322 45.3278 26.3372C45.7161 27.0366 45.5584 28.7247 44.9759 29.8341C44.7818 30.2199 43.7504 31.3172 43.3257 31.5704C42.6219 32.0166 41.6511 32.7401 41.6511 32.8365C41.6511 32.8968 41.5298 32.9812 41.3842 33.0294C40.5712 33.2827 37.6711 35.9957 37.1978 36.9483C36.6639 38.0335 36.4334 38.6364 36.4334 38.9861C36.4334 39.4323 37.307 41.2289 37.6832 41.5424C38.4719 42.2297 39.4791 42.4468 40.7168 42.1936C41.7725 41.9765 42.0637 41.868 42.9859 41.3254C43.9203 40.7828 44.1993 40.7104 44.1993 41.0239C44.1993 41.3736 43.5926 42.073 42.4399 43.0256C42.0394 43.3511 41.639 43.7008 41.5541 43.7732C41.4691 43.8576 41.3114 43.9299 41.2264 43.9299C41.1415 43.9299 40.9837 44.0023 40.8867 44.0987C40.6683 44.3158 38.4477 45.3769 38.205 45.3769C38.1079 45.3769 37.9987 45.4251 37.9623 45.4854C37.9259 45.5457 37.5376 45.6301 37.1008 45.6783C36.6639 45.7145 36.312 45.811 36.312 45.8713C36.312 45.9315 35.7538 45.9798 35.0743 45.9798C34.2735 45.9798 33.873 46.0159 33.958 46.1004C34.1157 46.2571 35.5354 46.438 36.1664 46.3656C36.6154 46.3174 36.6761 46.3415 36.6761 46.5586C36.6761 46.9565 35.9601 47.1976 34.5161 47.27C32.5625 47.3785 31.883 47.2218 29.6381 46.1848C29.0921 45.9315 28.4247 45.3166 28.4247 45.0634C28.4247 44.991 28.3155 44.8343 28.182 44.7137C28.0485 44.5931 27.9393 44.4363 27.9393 44.364C27.9393 44.2916 27.8665 44.0987 27.7816 43.9299C27.3326 43.0738 26.9079 41.1566 27.005 40.421C27.1627 39.2152 27.2477 38.9017 27.5146 38.3109C27.6724 37.9612 27.8423 37.4789 27.8908 37.2256C27.9272 36.9604 28.0607 36.6469 28.1699 36.5142C28.4854 36.1404 28.9343 34.9226 28.8615 34.6693C28.813 34.5367 28.5824 34.2473 28.3398 33.9941C27.551 33.2224 26.7987 33.4515 25.925 34.7658C25.7309 35.0673 25.2819 35.5013 24.93 35.7304C24.5538 35.9716 24.299 36.2248 24.299 36.3575C24.299 36.478 24.2626 36.5745 24.202 36.5745C24.0563 36.5745 23.8258 37.2015 23.6802 37.9612C23.4011 39.4805 24.0078 40.9154 24.93 40.9154C25.5853 40.9154 25.8158 40.626 25.9008 39.6493L25.9372 39.2996L26.2769 39.6252C26.6895 40.0472 26.7259 40.7345 26.3497 41.1686C26.2163 41.3254 25.9978 41.5786 25.8644 41.7233C25.6702 41.9524 25.5125 42.0006 24.8572 42.0006C24.0927 42.0006 24.0685 41.9886 23.4011 41.3736C23.0249 41.036 22.7216 40.6984 22.7216 40.626C22.7216 40.5537 22.6124 40.3607 22.4789 40.1919C22.3454 40.0231 22.2362 39.8061 22.2362 39.7096C22.2362 39.6131 22.1634 39.3961 22.0784 39.2273C21.7872 38.6726 21.5324 37.6115 21.4475 36.6951C21.3504 35.4411 21.1441 34.6693 20.8165 34.3558C20.6345 34.187 20.5374 33.9579 20.5374 33.6685C20.5374 33.3309 20.4767 33.2103 20.234 33.1018C19.9549 32.9812 19.9307 32.8968 19.9307 32.2457C19.9307 31.7754 19.87 31.486 19.7486 31.3896C19.4817 31.1604 18.9599 30.232 18.9599 29.9546C18.9599 29.7617 18.8871 29.7014 18.6202 29.7014C18.426 29.7014 18.1712 29.5929 18.0498 29.4482C17.8071 29.195 17.613 28.0254 17.7343 27.5672C17.8436 27.1692 18.3775 26.6266 19.1662 26.1202C19.3482 25.9996 19.5909 25.8187 19.7001 25.7223C19.7972 25.6258 20.1248 25.3605 20.4282 25.1556C21.6052 24.2874 22.0663 23.8653 22.2726 23.4433C22.3939 23.2021 22.6852 22.8766 22.9157 22.7078C23.1584 22.539 23.5224 22.2616 23.7287 22.0687C23.9229 21.8878 24.1413 21.7431 24.202 21.7431C24.2626 21.7431 24.384 21.6708 24.481 21.5864C24.566 21.514 24.7965 21.3332 24.9785 21.2005C25.4639 20.8629 26.6045 19.7174 26.6045 19.5727C26.6045 19.5003 26.6531 19.4521 26.7259 19.4521C26.7866 19.4521 26.8715 19.3195 26.92 19.1507C26.9564 18.9818 27.0414 18.8492 27.1021 18.8492C27.1627 18.8492 27.2113 18.7889 27.2113 18.7286C27.2113 18.6563 27.4418 18.2101 27.7088 17.7278C27.9879 17.2455 28.3034 16.6908 28.4004 16.4979C28.5096 16.2929 28.6917 16.0276 28.813 15.907C28.9343 15.7744 29.0557 15.5694 29.1042 15.4488C29.1406 15.3283 29.2256 15.2318 29.2862 15.2318C29.3469 15.2318 29.3954 15.1594 29.3954 15.075C29.3954 15.0027 29.5653 14.7495 29.7595 14.5204C29.9536 14.3033 30.2691 13.9295 30.4511 13.6884C30.6332 13.4593 30.9244 13.1457 31.0821 13.0131C31.2399 12.8684 31.5068 12.6152 31.6767 12.4223C31.8466 12.2414 32.0286 12.0967 32.0893 12.0967C32.1499 12.0967 32.3077 12.0002 32.4412 11.8797C32.7688 11.5661 34.1521 10.8909 34.4555 10.8909C34.6011 10.8909 34.7346 10.8427 34.7588 10.7703C34.7831 10.71 35.0986 10.5774 35.4626 10.4809C36.1907 10.288 38.9816 10.2156 38.9816 10.3965Z" fill="#515595"/>
<path d="M87.14 19V33H85.14V26.76H77.1V33H75.1V19H77.1V25.02H85.14V19H87.14ZM93.7305 19H95.7305V33H93.7305V19ZM115.302 33L115.282 22.8L110.222 31.3H109.302L104.242 22.86V33H102.322V19H103.962L109.802 28.84L115.562 19H117.202L117.222 33H115.302ZM133.983 31.26V33H123.823V19H133.703V20.74H125.823V25.04H132.843V26.74H125.823V31.26H133.983ZM148.982 33L145.962 28.7C145.589 28.7267 145.295 28.74 145.082 28.74H141.622V33H139.622V19H145.082C146.895 19 148.322 19.4333 149.362 20.3C150.402 21.1667 150.922 22.36 150.922 23.88C150.922 24.96 150.655 25.88 150.122 26.64C149.589 27.4 148.829 27.9533 147.842 28.3L151.162 33H148.982ZM145.022 27.04C146.289 27.04 147.255 26.7667 147.922 26.22C148.589 25.6733 148.922 24.8933 148.922 23.88C148.922 22.8667 148.589 22.0933 147.922 21.56C147.255 21.0133 146.289 20.74 145.022 20.74H141.622V27.04H145.022ZM165.473 29.5H158.033L156.493 33H154.433L160.773 19H162.753L169.113 33H167.013L165.473 29.5ZM164.773 27.9L161.753 21.04L158.733 27.9H164.773ZM185.453 33.16C184.399 33.16 183.379 33 182.393 32.68C181.419 32.3467 180.653 31.92 180.093 31.4L180.833 29.84C181.366 30.32 182.046 30.7133 182.873 31.02C183.713 31.3133 184.573 31.46 185.453 31.46C186.613 31.46 187.479 31.2667 188.053 30.88C188.626 30.48 188.913 29.9533 188.913 29.3C188.913 28.82 188.753 28.4333 188.433 28.14C188.126 27.8333 187.739 27.6 187.273 27.44C186.819 27.28 186.173 27.1 185.333 26.9C184.279 26.6467 183.426 26.3933 182.773 26.14C182.133 25.8867 181.579 25.5 181.113 24.98C180.659 24.4467 180.433 23.7333 180.433 22.84C180.433 22.0933 180.626 21.42 181.013 20.82C181.413 20.22 182.013 19.74 182.813 19.38C183.613 19.02 184.606 18.84 185.793 18.84C186.619 18.84 187.433 18.9467 188.233 19.16C189.033 19.3733 189.719 19.68 190.293 20.08L189.633 21.68C189.046 21.3067 188.419 21.0267 187.753 20.84C187.086 20.64 186.433 20.54 185.793 20.54C184.659 20.54 183.806 20.7467 183.233 21.16C182.673 21.5733 182.393 22.1067 182.393 22.76C182.393 23.24 182.553 23.6333 182.873 23.94C183.193 24.2333 183.586 24.4667 184.053 24.64C184.533 24.8 185.179 24.9733 185.993 25.16C187.046 25.4133 187.893 25.6667 188.533 25.92C189.173 26.1733 189.719 26.56 190.173 27.08C190.639 27.6 190.873 28.3 190.873 29.18C190.873 29.9133 190.673 30.5867 190.273 31.2C189.873 31.8 189.266 32.28 188.453 32.64C187.639 32.9867 186.639 33.16 185.453 33.16ZM206.355 31.26V33H196.195V19H206.075V20.74H198.195V25.04H205.215V26.74H198.195V31.26H206.355ZM220.913 29.5H213.473L211.933 33H209.873L216.213 19H218.193L224.553 33H222.453L220.913 29.5ZM220.213 27.9L217.193 21.04L214.173 27.9H220.213ZM238.401 33L235.381 28.7C235.008 28.7267 234.715 28.74 234.501 28.74H231.041V33H229.041V19H234.501C236.315 19 237.741 19.4333 238.781 20.3C239.821 21.1667 240.341 22.36 240.341 23.88C240.341 24.96 240.075 25.88 239.541 26.64C239.008 27.4 238.248 27.9533 237.261 28.3L240.581 33H238.401ZM234.441 27.04C235.708 27.04 236.675 26.7667 237.341 26.22C238.008 25.6733 238.341 24.8933 238.341 23.88C238.341 22.8667 238.008 22.0933 237.341 21.56C236.675 21.0133 235.708 20.74 234.441 20.74H231.041V27.04H234.441ZM252.233 33.16C250.833 33.16 249.566 32.8533 248.433 32.24C247.313 31.6133 246.433 30.76 245.793 29.68C245.153 28.5867 244.833 27.36 244.833 26C244.833 24.64 245.153 23.42 245.793 22.34C246.433 21.2467 247.319 20.3933 248.453 19.78C249.586 19.1533 250.853 18.84 252.253 18.84C253.346 18.84 254.346 19.0267 255.253 19.4C256.159 19.76 256.933 20.3 257.573 21.02L256.273 22.28C255.219 21.1733 253.906 20.62 252.333 20.62C251.293 20.62 250.353 20.8533 249.513 21.32C248.673 21.7867 248.013 22.4333 247.533 23.26C247.066 24.0733 246.833 24.9867 246.833 26C246.833 27.0133 247.066 27.9333 247.533 28.76C248.013 29.5733 248.673 30.2133 249.513 30.68C250.353 31.1467 251.293 31.38 252.333 31.38C253.893 31.38 255.206 30.82 256.273 29.7L257.573 30.96C256.933 31.68 256.153 32.2267 255.233 32.6C254.326 32.9733 253.326 33.16 252.233 33.16ZM274.866 19V33H272.866V26.76H264.826V33H262.826V19H264.826V25.02H272.866V19H274.866Z" fill="#515595"/>
</svg>
